<svg xmlns="http://www.w3.org/2000/svg" xmlns:xlink="http://www.w3.org/1999/xlink" width="29" height="28.088" viewBox="0 0 29 28.088">
  <defs>
    <clipPath id="clip-path">
      <rect id="Rectangle_4104" data-name="Rectangle 4104" width="29" height="28.088" fill="none"/>
    </clipPath>
  </defs>
  <g id="Group_7235" data-name="Group 7235" transform="translate(0 0)">
    <g id="Group_7234" data-name="Group 7234" transform="translate(0 0)" clip-path="url(#clip-path)">
      <path id="Path_7959" data-name="Path 7959" d="M5.713,14.5l9.523-9.156a.438.438,0,0,1,.609,0l0,0,9.423,9.153,0,0,.309.275a.436.436,0,0,1,.146.326h0V28.665a.439.439,0,0,1-.44.439H18.541V20.862a.439.439,0,0,0-.439-.44H12.978a.439.439,0,0,0-.439.44V29.1H5.791a.44.44,0,0,1-.44-.439V15.037a.438.438,0,0,1,.16-.338Z" transform="translate(-1.04 -1.016)" fill="#fff" fill-rule="evenodd"/>
      <path id="Path_7960" data-name="Path 7960" d="M14.5,2.088,1.482,14.45A.878.878,0,0,1,.273,13.177L13.9.242a.878.878,0,0,1,1.21,0L28.727,13.177a.878.878,0,0,1-1.209,1.273Z" transform="translate(0 0)" fill="#fff" fill-rule="evenodd"/>
      <path id="Path_7961" data-name="Path 7961" d="M7.534,9.337,5.806,11.811H4.259V4.205H8.623V9.176Z" transform="translate(-0.828 -0.818)" fill="#fff" fill-rule="evenodd"/>
    </g>
  </g>
</svg>
