<svg xmlns="http://www.w3.org/2000/svg" width="29" height="26.693" viewBox="0 0 29 26.693">
  <path id="plus-circle-o" d="M15.96,6.892v5.389h5.773v2.632H15.96V20.3H13.04V14.912H7.267V12.281H13.04V6.892ZM14.466.25A14.662,14.662,0,0,1,24.721,4.166,12.334,12.334,0,0,1,29,13.6a12.334,12.334,0,0,1-4.279,9.43,14.662,14.662,0,0,1-10.255,3.916A14.544,14.544,0,0,1,4.244,23.027,12.373,12.373,0,0,1,0,13.6a12.381,12.381,0,0,1,4.244-9.43A14.54,14.54,0,0,1,14.466.25ZM14.5,24.311a11.642,11.642,0,0,0,8.184-3.133,9.941,9.941,0,0,0,3.4-7.581,9.941,9.941,0,0,0-3.4-7.581A11.642,11.642,0,0,0,14.5,2.882,11.642,11.642,0,0,0,6.316,6.015,9.941,9.941,0,0,0,2.92,13.6a9.941,9.941,0,0,0,3.4,7.581A11.642,11.642,0,0,0,14.5,24.311Z" transform="translate(0 -0.25)" fill="#fff"/>
</svg>
